<svg width="32" height="26" viewBox="0 0 32 26" fill="none" xmlns="http://www.w3.org/2000/svg">
<path d="M3.2 26C2.32 26 1.56693 25.682 0.9408 25.0461C0.3136 24.4091 0 23.6437 0 22.75V3.25C0 2.35625 0.3136 1.59142 0.9408 0.9555C1.56693 0.3185 2.32 0 3.2 0H28.8C29.68 0 30.4336 0.3185 31.0608 0.9555C31.6869 1.59142 32 2.35625 32 3.25V22.75C32 23.6437 31.6869 24.4091 31.0608 25.0461C30.4336 25.682 29.68 26 28.8 26H3.2ZM16 14.3406C16.1333 14.3406 16.2731 14.32 16.4192 14.2789C16.5664 14.2388 16.7067 14.1781 16.84 14.0969L28.16 6.90625C28.3733 6.77083 28.5333 6.60183 28.64 6.39925C28.7467 6.19558 28.8 5.97188 28.8 5.72813C28.8 5.18646 28.5733 4.78021 28.12 4.50938C27.6667 4.23854 27.2 4.25208 26.72 4.55L16 11.375L5.28 4.55C4.8 4.25208 4.33333 4.24504 3.88 4.52888C3.42667 4.81379 3.2 5.21354 3.2 5.72813C3.2 5.99896 3.25333 6.23567 3.36 6.43825C3.46667 6.64192 3.62667 6.79792 3.84 6.90625L15.16 14.0969C15.2933 14.1781 15.4336 14.2388 15.5808 14.2789C15.7269 14.32 15.8667 14.3406 16 14.3406Z" fill="#FFFFE3"/>
</svg>
