<svg width="51" height="30" viewBox="0 0 51 30" fill="none" xmlns="http://www.w3.org/2000/svg">
<path d="M4.5 3C3.66 3 3 2.34 3 1.5C3 0.660001 3.66 0 4.5 0C5.34 0 6 0.660001 6 1.5C6 2.34 5.34 3 4.5 3ZM1.5 3C0.66 3 0 2.34 0 1.5C0 0.660001 0.66 0 1.5 0C2.34 0 3 0.660001 3 1.5C3 2.34 2.34 3 1.5 3ZM7.5 3C6.66 3 6 2.34 6 1.5C6 0.660001 6.66 0 7.5 0C8.34 0 9 0.660001 9 1.5C9 2.34 8.34 3 7.5 3ZM19.5 3C18.66 3 18 2.34 18 1.5C18 0.660001 18.66 0 19.5 0C20.34 0 21 0.660001 21 1.5C21 2.34 20.34 3 19.5 3ZM22.5 3C21.66 3 21 2.34 21 1.5C21 0.660001 21.66 0 22.5 0C23.34 0 24 0.660001 24 1.5C24 2.34 23.34 3 22.5 3ZM10.5 3C9.66 3 9 2.34 9 1.5C9 0.660001 9.66 0 10.5 0C11.34 0 12 0.660001 12 1.5C12 2.34 11.34 3 10.5 3ZM13.5 3C12.66 3 12 2.34 12 1.5C12 0.660001 12.66 0 13.5 0C14.34 0 15 0.660001 15 1.5C15 2.34 14.34 3 13.5 3ZM16.5 3C15.66 3 15 2.34 15 1.5C15 0.660001 15.66 0 16.5 0C17.34 0 18 0.660001 18 1.5C18 2.34 17.34 3 16.5 3ZM1.5 6C0.66 6 0 5.34 0 4.5C0 3.66 0.66 3 1.5 3C2.34 3 3 3.66 3 4.5C3 5.34 2.34 6 1.5 6ZM4.5 6C3.66 6 3 5.34 3 4.5C3 3.66 3.66 3 4.5 3C5.34 3 6 3.66 6 4.5C6 5.34 5.34 6 4.5 6ZM7.5 6C6.66 6 6 5.34 6 4.5C6 3.66 6.66 3 7.5 3C8.34 3 9 3.66 9 4.5C9 5.34 8.34 6 7.5 6ZM22.5 6C21.66 6 21 5.34 21 4.5C21 3.66 21.66 3 22.5 3C23.34 3 24 3.66 24 4.5C24 5.34 23.34 6 22.5 6ZM19.5 6C18.66 6 18 5.34 18 4.5C18 3.66 18.66 3 19.5 3C20.34 3 21 3.66 21 4.5C21 5.34 20.34 6 19.5 6ZM13.5 6C12.66 6 12 5.34 12 4.5C12 3.66 12.66 3 13.5 3C14.34 3 15 3.66 15 4.5C15 5.34 14.34 6 13.5 6ZM10.5 6C9.66 6 9 5.34 9 4.5C9 3.66 9.66 3 10.5 3C11.34 3 12 3.66 12 4.5C12 5.34 11.34 6 10.5 6ZM16.5 6C15.66 6 15 5.34 15 4.5C15 3.66 15.66 3 16.5 3C17.34 3 18 3.66 18 4.5C18 5.34 17.34 6 16.5 6ZM10.5 9C9.66 9 9 8.34 9 7.5C9 6.66 9.66 6 10.5 6C11.34 6 12 6.66 12 7.5C12 8.34 11.34 9 10.5 9ZM13.5 9C12.66 9 12 8.34 12 7.5C12 6.66 12.66 6 13.5 6C14.34 6 15 6.66 15 7.5C15 8.34 14.34 9 13.5 9ZM13.5 12C12.66 12 12 11.34 12 10.5C12 9.66 12.66 9 13.5 9C14.34 9 15 9.66 15 10.5C15 11.34 14.34 12 13.5 12ZM10.5 12C9.66 12 9 11.34 9 10.5C9 9.66 9.66 9 10.5 9C11.34 9 12 9.66 12 10.5C12 11.34 11.34 12 10.5 12ZM10.5 15C9.66 15 9 14.34 9 13.5C9 12.66 9.66 12 10.5 12C11.34 12 12 12.66 12 13.5C12 14.34 11.34 15 10.5 15ZM13.5 15C12.66 15 12 14.34 12 13.5C12 12.66 12.66 12 13.5 12C14.34 12 15 12.66 15 13.5C15 14.34 14.34 15 13.5 15ZM13.5 18C12.66 18 12 17.34 12 16.5C12 15.66 12.66 15 13.5 15C14.34 15 15 15.66 15 16.5C15 17.34 14.34 18 13.5 18ZM10.5 18C9.66 18 9 17.34 9 16.5C9 15.66 9.66 15 10.5 15C11.34 15 12 15.66 12 16.5C12 17.34 11.34 18 10.5 18ZM13.5 21C12.66 21 12 20.34 12 19.5C12 18.66 12.66 18 13.5 18C14.34 18 15 18.66 15 19.5C15 20.34 14.34 21 13.5 21ZM10.5 21C9.66 21 9 20.34 9 19.5C9 18.66 9.66 18 10.5 18C11.34 18 12 18.66 12 19.5C12 20.34 11.34 21 10.5 21ZM13.5 24C12.66 24 12 23.34 12 22.5C12 21.66 12.66 21 13.5 21C14.34 21 15 21.66 15 22.5C15 23.34 14.34 24 13.5 24ZM10.5 24C9.66 24 9 23.34 9 22.5C9 21.66 9.66 21 10.5 21C11.34 21 12 21.66 12 22.5C12 23.34 11.34 24 10.5 24ZM13.5 27C12.66 27 12 26.34 12 25.5C12 24.66 12.66 24 13.5 24C14.34 24 15 24.66 15 25.5C15 26.34 14.34 27 13.5 27ZM10.5 27C9.66 27 9 26.34 9 25.5C9 24.66 9.66 24 10.5 24C11.34 24 12 24.66 12 25.5C12 26.34 11.34 27 10.5 27ZM10.5 30C9.66 30 9 29.34 9 28.5C9 27.66 9.66 27 10.5 27C11.34 27 12 27.66 12 28.5C12 29.34 11.34 30 10.5 30ZM13.5 30C12.66 30 12 29.34 12 28.5C12 27.66 12.66 27 13.5 27C14.34 27 15 27.66 15 28.5C15 29.34 14.34 30 13.5 30ZM31.5 3C30.66 3 30 2.34 30 1.5C30 0.660001 30.66 0 31.5 0C32.34 0 33 0.660001 33 1.5C33 2.34 32.34 3 31.5 3ZM28.5 3C27.66 3 27 2.34 27 1.5C27 0.660001 27.66 0 28.5 0C29.34 0 30 0.660001 30 1.5C30 2.34 29.34 3 28.5 3ZM49.5 3C48.66 3 48 2.34 48 1.5C48 0.660001 48.66 0 49.5 0C50.34 0 51 0.660001 51 1.5C51 2.34 50.34 3 49.5 3ZM46.5 3C45.66 3 45 2.34 45 1.5C45 0.660001 45.66 0 46.5 0C47.34 0 48 0.660001 48 1.5C48 2.34 47.34 3 46.5 3ZM31.5 6C30.66 6 30 5.34 30 4.5C30 3.66 30.66 3 31.5 3C32.34 3 33 3.66 33 4.5C33 5.34 32.34 6 31.5 6ZM34.5 6C33.66 6 33 5.34 33 4.5C33 3.66 33.66 3 34.5 3C35.34 3 36 3.66 36 4.5C36 5.34 35.34 6 34.5 6ZM28.5 6C27.66 6 27 5.34 27 4.5C27 3.66 27.66 3 28.5 3C29.34 3 30 3.66 30 4.5C30 5.34 29.34 6 28.5 6ZM46.5 6C45.66 6 45 5.34 45 4.5C45 3.66 45.66 3 46.5 3C47.34 3 48 3.66 48 4.5C48 5.34 47.34 6 46.5 6ZM49.5 6C48.66 6 48 5.34 48 4.5C48 3.66 48.66 3 49.5 3C50.34 3 51 3.66 51 4.5C51 5.34 50.34 6 49.5 6ZM49.5 9C48.66 9 48 8.34 48 7.5C48 6.66 48.66 6 49.5 6C50.34 6 51 6.66 51 7.5C51 8.34 50.34 9 49.5 9ZM31.5 9C30.66 9 30 8.34 30 7.5C30 6.66 30.66 6 31.5 6C32.34 6 33 6.66 33 7.5C33 8.34 32.34 9 31.5 9ZM37.5 9C36.66 9 36 8.34 36 7.5C36 6.66 36.66 6 37.5 6C38.34 6 39 6.66 39 7.5C39 8.34 38.34 9 37.5 9ZM34.5 9C33.66 9 33 8.34 33 7.5C33 6.66 33.66 6 34.5 6C35.34 6 36 6.66 36 7.5C36 8.34 35.34 9 34.5 9ZM28.5 9C27.66 9 27 8.34 27 7.5C27 6.66 27.66 6 28.5 6C29.34 6 30 6.66 30 7.5C30 8.34 29.34 9 28.5 9ZM46.5 9C45.66 9 45 8.34 45 7.5C45 6.66 45.66 6 46.5 6C47.34 6 48 6.66 48 7.5C48 8.34 47.34 9 46.5 9ZM31.5 12C30.66 12 30 11.34 30 10.5C30 9.66 30.66 9 31.5 9C32.34 9 33 9.66 33 10.5C33 11.34 32.34 12 31.5 12ZM34.5 12C33.66 12 33 11.34 33 10.5C33 9.66 33.66 9 34.5 9C35.34 9 36 9.66 36 10.5C36 11.34 35.34 12 34.5 12ZM49.5 12C48.66 12 48 11.34 48 10.5C48 9.66 48.66 9 49.5 9C50.34 9 51 9.66 51 10.5C51 11.34 50.34 12 49.5 12ZM46.5 12C45.66 12 45 11.34 45 10.5C45 9.66 45.66 9 46.5 9C47.34 9 48 9.66 48 10.5C48 11.34 47.34 12 46.5 12ZM37.5 12C36.66 12 36 11.34 36 10.5C36 9.66 36.66 9 37.5 9C38.34 9 39 9.66 39 10.5C39 11.34 38.34 12 37.5 12ZM28.5 12C27.66 12 27 11.34 27 10.5C27 9.66 27.66 9 28.5 9C29.34 9 30 9.66 30 10.5C30 11.34 29.34 12 28.5 12ZM40.5 12C39.66 12 39 11.34 39 10.5C39 9.66 39.66 9 40.5 9C41.34 9 42 9.66 42 10.5C42 11.34 41.34 12 40.5 12ZM37.5 15C36.66 15 36 14.34 36 13.5C36 12.66 36.66 12 37.5 12C38.34 12 39 12.66 39 13.5C39 14.34 38.34 15 37.5 15ZM43.5 15C42.66 15 42 14.34 42 13.5C42 12.66 42.66 12 43.5 12C44.34 12 45 12.66 45 13.5C45 14.34 44.34 15 43.5 15ZM40.5 15C39.66 15 39 14.34 39 13.5C39 12.66 39.66 12 40.5 12C41.34 12 42 12.66 42 13.5C42 14.34 41.34 15 40.5 15ZM49.5 15C48.66 15 48 14.34 48 13.5C48 12.66 48.66 12 49.5 12C50.34 12 51 12.66 51 13.5C51 14.34 50.34 15 49.5 15ZM46.5 15C45.66 15 45 14.34 45 13.5C45 12.66 45.66 12 46.5 12C47.34 12 48 12.66 48 13.5C48 14.34 47.34 15 46.5 15ZM31.5 15C30.66 15 30 14.34 30 13.5C30 12.66 30.66 12 31.5 12C32.34 12 33 12.66 33 13.5C33 14.34 32.34 15 31.5 15ZM28.5 15C27.66 15 27 14.34 27 13.5C27 12.66 27.66 12 28.5 12C29.34 12 30 12.66 30 13.5C30 14.34 29.34 15 28.5 15ZM46.5 18C45.66 18 45 17.34 45 16.5C45 15.66 45.66 15 46.5 15C47.34 15 48 15.66 48 16.5C48 17.34 47.34 18 46.5 18ZM43.5 18C42.66 18 42 17.34 42 16.5C42 15.66 42.66 15 43.5 15C44.34 15 45 15.66 45 16.5C45 17.34 44.34 18 43.5 18ZM40.5 18C39.66 18 39 17.34 39 16.5C39 15.66 39.66 15 40.5 15C41.34 15 42 15.66 42 16.5C42 17.34 41.34 18 40.5 18ZM49.5 18C48.66 18 48 17.34 48 16.5C48 15.66 48.66 15 49.5 15C50.34 15 51 15.66 51 16.5C51 17.34 50.34 18 49.5 18ZM31.5 18C30.66 18 30 17.34 30 16.5C30 15.66 30.66 15 31.5 15C32.34 15 33 15.66 33 16.5C33 17.34 32.34 18 31.5 18ZM28.5 18C27.66 18 27 17.34 27 16.5C27 15.66 27.66 15 28.5 15C29.34 15 30 15.66 30 16.5C30 17.34 29.34 18 28.5 18ZM28.5 21C27.66 21 27 20.34 27 19.5C27 18.66 27.66 18 28.5 18C29.34 18 30 18.66 30 19.5C30 20.34 29.34 21 28.5 21ZM49.5 21C48.66 21 48 20.34 48 19.5C48 18.66 48.66 18 49.5 18C50.34 18 51 18.66 51 19.5C51 20.34 50.34 21 49.5 21ZM46.5 21C45.66 21 45 20.34 45 19.5C45 18.66 45.66 18 46.5 18C47.34 18 48 18.66 48 19.5C48 20.34 47.34 21 46.5 21ZM43.5 21C42.66 21 42 20.34 42 19.5C42 18.66 42.66 18 43.5 18C44.34 18 45 18.66 45 19.5C45 20.34 44.34 21 43.5 21ZM31.5 21C30.66 21 30 20.34 30 19.5C30 18.66 30.66 18 31.5 18C32.34 18 33 18.66 33 19.5C33 20.34 32.34 21 31.5 21ZM28.5 24C27.66 24 27 23.34 27 22.5C27 21.66 27.66 21 28.5 21C29.34 21 30 21.66 30 22.5C30 23.34 29.34 24 28.5 24ZM49.5 24C48.66 24 48 23.34 48 22.5C48 21.66 48.66 21 49.5 21C50.34 21 51 21.66 51 22.5C51 23.34 50.34 24 49.5 24ZM46.5 24C45.66 24 45 23.34 45 22.5C45 21.66 45.66 21 46.5 21C47.34 21 48 21.66 48 22.5C48 23.34 47.34 24 46.5 24ZM31.5 24C30.66 24 30 23.34 30 22.5C30 21.66 30.66 21 31.5 21C32.34 21 33 21.66 33 22.5C33 23.34 32.34 24 31.5 24ZM28.5 27C27.66 27 27 26.34 27 25.5C27 24.66 27.66 24 28.5 24C29.34 24 30 24.66 30 25.5C30 26.34 29.34 27 28.5 27ZM49.5 27C48.66 27 48 26.34 48 25.5C48 24.66 48.66 24 49.5 24C50.34 24 51 24.66 51 25.5C51 26.34 50.34 27 49.5 27ZM46.5 27C45.66 27 45 26.34 45 25.5C45 24.66 45.66 24 46.5 24C47.34 24 48 24.66 48 25.5C48 26.34 47.34 27 46.5 27ZM31.5 27C30.66 27 30 26.34 30 25.5C30 24.66 30.66 24 31.5 24C32.34 24 33 24.66 33 25.5C33 26.34 32.34 27 31.5 27ZM28.5 30C27.66 30 27 29.34 27 28.5C27 27.66 27.66 27 28.5 27C29.34 27 30 27.66 30 28.5C30 29.34 29.34 30 28.5 30ZM31.5 30C30.66 30 30 29.34 30 28.5C30 27.66 30.66 27 31.5 27C32.34 27 33 27.66 33 28.5C33 29.34 32.34 30 31.5 30ZM46.5 30C45.66 30 45 29.34 45 28.5C45 27.66 45.66 27 46.5 27C47.34 27 48 27.66 48 28.5C48 29.34 47.34 30 46.5 30ZM49.5 30C48.66 30 48 29.34 48 28.5C48 27.66 48.66 27 49.5 27C50.34 27 51 27.66 51 28.5C51 29.34 50.34 30 49.5 30Z" fill="#00BECF"/>
</svg>
